<?xml version="1.0" encoding="UTF-8" standalone="no"?><!DOCTYPE svg PUBLIC "-//W3C//DTD SVG 1.1//EN" "http://www.w3.org/Graphics/SVG/1.1/DTD/svg11.dtd"><svg width="100%" height="100%" viewBox="0 0 256 256" version="1.1" xmlns="http://www.w3.org/2000/svg" xmlns:xlink="http://www.w3.org/1999/xlink" xml:space="preserve" xmlns:serif="http://www.serif.com/" style="fill-rule:evenodd;clip-rule:evenodd;stroke-linejoin:round;stroke-miterlimit:2;"><path d="M128.414,0.001c52.33,0.249 102.675,34.861 120.473,85.851c13.431,38.477 7.176,83.343 -16.964,116.851c-23.478,32.59 -62.928,53.168 -103.509,53.296c-47.58,0.151 -94.332,-28.377 -115.615,-72.177c-20.156,-41.481 -15.868,-94.034 12.414,-132.078c23.528,-31.648 62.108,-51.3 101.547,-51.738c0.551,-0.004 1.102,-0.006 1.654,-0.005Zm-0.752,24c-26.075,0.124 -51.765,10.342 -70.713,28.087c-31.788,29.771 -42.37,80.166 -22.7,120.961c16.903,35.058 54.512,59.076 94.089,58.95c44.066,-0.139 86.545,-30.776 99.451,-74.615c7.557,-25.67 4.729,-54.36 -7.887,-78.084c-17.654,-33.195 -54.196,-55.36 -92.24,-55.299Zm61.992,47.373c-10.355,27.303 -38.272,90.906 -50.998,118.208l-36.455,0c-12.727,-27.302 -25.238,-55.422 -35.592,-82.56l30.631,-1.635c7.118,19.618 14.884,40.544 23.081,60.49l1.725,0c7.982,-19.783 30.074,-75.047 36.761,-94.503l30.847,0Z" style="fill:#333;"/></svg>